<svg xmlns="http://www.w3.org/2000/svg" xmlns:xlink="http://www.w3.org/1999/xlink" width="46" height="46"><g transform="translate(-329 -12)"><path id="a" d="M335.028 15a3.089 3.089 0 103.029 3.088A3.062 3.062 0 00335.028 15zm0 4.72a1.632 1.632 0 111.6-1.632 1.618 1.618 0 01-1.599 1.631zm20.057-3.147a5.449 5.449 0 105.343 5.448 5.4 5.4 0 00-5.342-5.448zm0 9.44A3.992 3.992 0 11359 22.02a3.959 3.959 0 01-3.914 3.992zm10.028 7.079A7.023 7.023 0 10372 40.113a6.962 6.962 0 00-6.886-7.022zm0 12.586a5.566 5.566 0 115.457-5.565 5.518 5.518 0 01-5.456 5.564zm-23.143-7.866a8.6 8.6 0 108.429 8.594 8.522 8.522 0 00-8.428-8.595zm0 15.732a7.139 7.139 0 117-7.138 7.078 7.078 0 01-6.999 7.138zm0-3.38a3.727 3.727 0 01-3.686-3.758.714.714 0 10-1.428 0 5.171 5.171 0 005.114 5.215.728.728 0 00.001-1.457zm8.61-29.647l-13.114-2.36a.717.717 0 00-.828.591.728.728 0 00.579.844l13.115 2.36a.7.7 0 00.125.011.718.718 0 00.7-.6.726.726 0 00-.576-.846zm2.54 5.588a.708.708 0 00-.973.278l-6.943 12.586a.737.737 0 00.273.992.706.706 0 00.973-.278l6.944-12.583a.737.737 0 00-.273-.995zm6.516 16.195a.714.714 0 00-.866-.53l-9.257 2.36a.729.729 0 00-.52.883.716.716 0 00.692.552.7.7 0 00.174-.022l9.257-2.36a.729.729 0 00.52-.883z" stroke="inherit" filter="none" fill="inherit" stroke-linejoin="round" stroke-width="1" fill-rule="evenodd"/></g><use transform="translate(-329 -12)" xlink:href="#a" stroke="#000" filter="none" fill="none"/></svg>